<?xml version="1.0" encoding="UTF-8" standalone="no"?>
<svg width="241px" height="65px" viewBox="0 0 241 65" version="1.1" xmlns="http://www.w3.org/2000/svg" xmlns:xlink="http://www.w3.org/1999/xlink">
    <!-- Generator: Sketch 42 (36781) - http://www.bohemiancoding.com/sketch -->
    <title>Combined Shape</title>
    <desc>Created with Sketch.</desc>
    <defs></defs>
    <g id="Page-1" stroke="none" stroke-width="1" fill="none" fill-rule="evenodd">
        <path d="M37.2112379,39.7891866 L37.2112379,39.7046501 C37.2112379,33.7144233 32.6549837,27.8925429 25.736308,27.8925429 C18.3113819,27.8925429 14.0927895,33.8832542 14.0927895,39.7046501 C14.0927895,46.2018541 18.4802128,51.7706092 25.4831828,51.7706092 C32.6549837,51.7706092 37.2112379,45.948971 37.2112379,39.7891866 Z M28.183266,14.8148095 C37.9706136,14.8148095 51.2174201,21.8177795 51.2174201,39.5363036 C51.2174201,56.4114 39.489365,64.8485848 27.5927212,64.8485848 C21.0114651,64.8485848 15.9489605,61.6422511 14.0082529,58.2670865 L14.0082529,63.2452968 L0.5931,63.2452968 L0.5931,0.808869558 L14.59904,0.808869558 L14.59904,16.5864439 L14.59904,20.1301972 C19.5770081,14.8148095 26.2425585,14.8148095 28.183266,14.8148095 Z M54.7553357,63.2451999 L68.7617601,63.2451999 L68.7617601,0.808772668 L54.7553357,0.808772668 L54.7553357,63.2451999 Z M85.7323174,34.0516975 C86.0702214,31.8583492 88.9388933,26.6270136 96.1947463,26.6270136 C103.450841,26.6270136 106.319756,31.8583492 106.657175,34.0516975 L85.7323174,34.0516975 Z M96.1104519,14.8146642 C81.8513867,14.8146642 71.5575465,26.8798966 71.5575465,39.9581144 C71.5575465,53.8795178 82.9479398,64.7641451 96.3635772,64.7641451 C101.172957,64.7641451 105.813505,63.3294458 109.694678,60.5455527 C113.660145,57.8452272 116.951015,53.7954657 119.228658,48.5643724 L104.885299,48.5643724 C103.197958,51.0113304 100.835537,52.9517957 96.3635772,52.9517957 C90.8793586,52.9517957 86.1542735,49.6611677 85.5639709,44.6831995 L120.410474,44.6831995 C121.506785,36.0766994 119.735151,28.5674789 113.828976,22.2395903 C109.441553,17.5990418 103.282253,14.8146642 96.1104519,14.8146642 L96.1104519,14.8146642 Z M149.517236,14.8146884 C141.164346,14.8146884 138.211137,19.1178174 136.607849,21.3957023 L136.607849,16.4179764 L123.530116,16.4179764 L123.530116,63.2451757 L137.535813,63.2451757 L137.535813,37.7645481 C137.535813,32.9549265 138.632367,27.9769583 145.551769,27.9769583 C151.795121,27.9769583 152.892158,32.5332125 152.892158,37.6797693 L152.892158,63.2451757 L166.898098,63.2451757 L166.898098,33.9674274 C166.898098,27.6395388 165.29481,14.8146884 149.517236,14.8146884 M204.019774,48.1421498 C201.826183,50.336467 198.704628,51.6863875 195.329706,51.6863875 C188.748208,51.6863875 183.601409,46.8765236 183.601409,39.7047228 L183.601409,39.6206706 C183.601409,34.2205042 187.398287,27.8923733 195.498052,27.8923733 C198.78868,27.8923733 201.741889,29.0739474 203.850943,31.1832436 C205.960481,33.2082455 207.310402,36.0766751 207.310402,39.4518397 C207.479233,42.9112987 206.213607,45.9488015 204.019774,48.1421498 L204.019774,48.1421498 Z M206.551268,15.3208904 L206.551268,20.3833951 C205.032517,18.8646437 201.067292,14.81464 192.797969,14.81464 C180.901568,14.81464 169.595469,23.8426118 169.595469,39.7047228 C169.595469,53.7954415 178.876324,64.7641209 193.051337,64.7641209 C202.501022,64.7641209 205.876187,60.1238146 207.225865,58.183107 L207.225865,63.2453695 L220.556966,63.2453695 L220.556966,0.8087 L206.551268,0.8087 L206.551268,15.3208904 Z M226.42608,63.1836748 L240.5931,63.1836748 L240.5931,49.0166551 L226.42608,49.0166551 L226.42608,63.1836748 Z" id="Combined-Shape" fill="#000000"></path>
    </g>
</svg>