<?xml version="1.0" encoding="UTF-8" standalone="no"?>
<svg width="120px" height="81px" viewBox="0 0 120 81" version="1.1" xmlns="http://www.w3.org/2000/svg" xmlns:xlink="http://www.w3.org/1999/xlink">
    <!-- Generator: Sketch 42 (36781) - http://www.bohemiancoding.com/sketch -->
    <title>Logo</title>
    <desc>Created with Sketch.</desc>
    <defs></defs>
    <g id="Symbols" stroke="none" stroke-width="1" fill="none" fill-rule="evenodd">
        <g id="Components/Nav/Main/Paid" transform="translate(-13.000000, -16.000000)" fill="#2F2F2F">
            <path d="M107.131508,88.6565794 C107.052438,88.7383892 108.824236,91.0054649 105.330993,87.7330726 C105.082768,87.4534246 96.8016561,78.6120655 88.629905,69.6822102 C89.1932299,69.587421 89.742393,69.4969582 90.2817214,69.4092486 C97.7705592,77.988659 106.20273,87.6351368 107.131508,88.6565794 Z M104.689385,92.7419568 L83.9368423,70.5046348 C84.8703409,70.3343288 85.7865306,70.1711025 86.6814775,70.0153492 C95.4071124,79.4773616 106.488326,91.3122517 106.488326,91.3122517 C106.487146,91.3150049 107.149604,94.0088289 104.689385,92.7419568 Z M71.6263055,71.8859619 C50.7148365,76.9672164 39.4971185,75.7215834 30.2427765,74.0374026 L30.7242776,60.9981777 C35.0212034,61.5228617 48.6712102,65.3219047 71.8548612,58.9781047 C95.0381188,52.634698 115.796168,53.5231997 115.796168,53.5231997 L115.316634,66.5018539 C93.7745717,65.4619254 71.6263055,71.8859619 71.6263055,71.8859619 Z M47.7715427,89.6662226 C47.7715427,89.6662226 44.1669715,93.8306565 43.9238607,92.6562138 C43.6807498,91.4817711 47.7715427,86.2003186 47.7715427,86.2003186 L56.2776696,75.8796965 C57.2359513,75.7746811 58.1934462,75.6590461 59.146614,75.5308249 L47.7715427,89.6662226 Z M29.3804803,60.3381928 L29.1058988,67.7718725 L18.2430125,71.1536068 L20.8078716,64.4149171 L14.6840739,62.0620985 C29.4394878,53.0370606 42.8888692,56.5662886 42.8888692,56.5662886 C39.0415806,58.1324744 37.0530281,57.8150681 33.2549124,58.0408317 C29.4567967,58.2665953 29.3804803,60.3381928 29.3804803,60.3381928 Z M116.496391,67.3384378 L116.789068,59.4174391 C120.491198,58.9438862 127.441494,56.0278384 127.441494,56.0278384 L125.187408,62.9002557 L130.787612,65.1814908 C117.313841,73.7140965 102.777542,71.102869 102.777542,71.102869 C102.777542,71.102869 104.294428,69.9386525 110.313585,69.4285211 C116.332743,68.9187831 116.496391,67.3384378 116.496391,67.3384378 Z M98.6832084,22.735966 C98.2563876,22.2659529 97.7737063,21.8891558 97.38347,21.3691916 C97.0903995,20.9786284 96.9043292,20.4279854 96.6706595,19.9485328 C96.7300604,19.8777358 96.7898546,19.8069389 96.8496489,19.7357486 C97.7249267,20.7284792 98.5899766,21.7408756 99.4778427,22.7080406 C100.395606,23.7074575 101.335792,24.662823 102.266143,25.6378543 C102.304302,25.5623376 102.342066,25.4872142 102.380225,25.4120907 C101.174505,23.8765835 99.0506284,21.6818781 97.7048642,19.9678053 C99.997502,21.7491352 102.196121,23.0714649 107.382093,29.3853729 C106.80618,29.2988433 106.292421,29.4207714 105.889597,29.1293239 C103.375878,27.3118089 100.95067,25.2335251 98.6832084,22.735966 Z M73.5444425,53.1287033 C67.7565941,46.0407487 63.6579336,40.4729619 63.6221357,40.4013783 C64.047383,40.6884993 65.1645916,41.7351142 66.5347456,43.0920557 L72.9504337,49.8051799 C73.5586043,50.4860105 74.0582011,51.0692987 74.3792018,51.4850342 C74.4614189,51.5920162 74.5459963,51.6966384 74.6301804,51.8012605 L73.5444425,53.1287033 Z M70.9485061,56.3031599 L60.0749985,43.798452 C60.0749985,43.798452 61.6080132,42.2428856 61.5183218,41.9986362 C61.5183218,41.9986362 67.1881552,48.2189349 72.472473,54.4396269 L70.9485061,56.3031599 Z M53.3040853,45.9998438 C52.3485573,46.8643532 51.4890148,47.836238 50.5291595,48.695241 C49.5024291,49.6136348 48.4084302,50.4561185 47.3447218,51.3308541 C46.834897,50.1143265 46.6165693,50.2913189 46.834897,50.1143265 C49.4209988,48.0148037 53.3174603,44.3030769 54.6270333,43.1372871 C56.7450089,41.2521217 56.0963199,41.8078777 58.1741705,39.8786608 C59.5266222,38.6228016 61.1933872,37.2678266 61.5895242,36.4670345 C61.6150941,36.4151167 61.6060463,36.0308466 61.6060463,36.0308466 C55.9358195,39.6056993 51.1809957,45.2313036 46.6047678,49.8826632 C46.2751126,49.4803005 45.9643398,49.1007502 45.6740229,48.7467655 C45.4757578,48.447845 45.2645109,48.1453847 45.0406758,47.8393845 C46.0316083,46.93869 47.0111327,46.0726073 47.9615468,45.175846 C50.1747212,43.0877292 52.3847485,40.9968593 54.5684192,38.876884 C54.9122362,38.5429584 55.2001928,38.149642 55.4881493,37.7563256 C54.2257823,38.5303723 52.9287976,39.2611541 51.7624162,40.1567355 C50.4493027,41.1651987 49.29905,42.3805464 48.0878228,43.5164441 C46.9182943,44.6134035 45.5233571,45.8566766 44.3640566,46.9504895 C43.9569049,46.4391782 43.5206428,45.9247204 43.0544836,45.4141957 C41.5871639,43.8067116 40.0793257,42.5005079 38.7382821,41.6061064 C38.6497709,41.5140704 38.5612596,41.4271475 38.4727484,41.3339315 C41.6717413,38.7533826 45.1378415,35.5686998 47.7546272,32.122855 C46.9297024,32.6656316 46.0198068,33.1132256 45.296375,33.7692774 C43.1776126,35.6906279 41.1296591,37.6910351 39.0636101,39.6713831 C38.763852,39.9588974 38.3897445,40.4127845 38.0317657,40.833633 C37.7257135,40.6692268 36.9995279,40.2719772 36.3610669,39.9290053 C37.0809583,39.1836708 38.0569422,38.4458092 38.7831278,37.7925107 C40.2760174,36.4489419 41.8184733,35.1612241 43.3298519,33.838501 C43.9895557,33.2615059 44.6000865,32.6259066 45.2833933,32.0791968 C45.4922799,31.9120374 45.8675675,31.9423227 46.1712594,31.8990579 C46.4851793,31.8546132 46.9029523,31.9482225 47.1059381,31.7794898 C47.6098621,31.3613944 48.1106391,30.9385793 48.6078755,30.5114377 L48.6161366,30.5063246 L48.6220373,30.4992449 C49.3615979,29.862859 50.089357,29.2131003 50.7883991,28.5330563 C51.4056175,27.9324621 52.0334572,27.2520248 52.3528845,26.4441529 C53.1805629,24.3505298 55.0900454,23.3467864 56.4967841,21.8498242 C57.9507287,20.3025175 59.6202474,18.9683883 61.204402,17.5508761 C61.6493185,17.1528399 62.1504888,16.9321894 62.8554316,17.218917 C63.5363781,17.4958118 64.2393541,17.6865702 64.7633406,17.8592361 C61.7244547,20.4743968 58.6721937,23.0954572 55.6364548,25.7353968 C55.5286678,25.8293994 55.580201,26.1070808 55.5463701,26.3898753 C57.0298185,25.7794482 57.9794457,24.6270312 59.1167168,23.7141439 C60.2799512,22.7804108 61.522649,21.9434335 62.6799827,21.0026207 C63.784603,20.1050727 64.6150351,18.8484268 66.0504907,18.3984729 C66.1106784,18.4704498 66.170866,18.54282 66.2314471,18.6147969 C65.3959009,19.4580672 64.5930056,20.336736 63.7196947,21.1383148 C59.945182,24.6030389 56.1450994,28.0386576 52.3682264,31.5006284 C51.6880667,32.1236416 51.0692748,32.8150918 50.4296336,33.482943 C49.8564741,34.0815706 49.128715,34.5641698 49.2132924,35.7165868 C50.493755,34.5153986 51.7624162,33.3016242 53.0562538,32.1153819 C55.642749,29.7432908 58.2308176,27.3735596 60.840129,25.0278206 C62.879428,23.1941796 64.9600323,21.4073433 67.0024783,19.5780287 C67.3750123,19.2441031 67.6735902,19.2716353 68.0886096,19.6500056 C69.8320843,21.2366439 71.4343345,22.9369507 72.4941091,25.0604659 C72.7655436,25.6040291 72.9264373,26.1916438 73.1380775,26.7591994 C73.5841742,27.3283282 73.5822073,27.8109274 73.1140812,28.2404289 C71.5846069,29.6433884 70.0692945,31.0620807 68.5410004,32.4666135 C66.6779371,34.1787197 64.821168,35.897119 62.9356818,37.5836597 C61.7842489,38.613362 60.5714482,39.5734473 59.4090006,40.5905635 C57.3630141,42.3809397 55.320568,44.1756424 53.3040853,45.9998438 Z M101.532484,67.7620396 L101.397553,71.4179154 C116.88584,76.7489258 133,65.1413725 133,65.1413725 L126.581165,62.219425 L128.976082,54.3763029 C124.914006,56.0565505 116.610472,58.5564695 116.610472,58.5564695 L116.839814,52.3416772 C108.400956,51.5487514 94.5208198,52.7318471 81.2110895,55.272671 L103.29248,29.6374887 C105.766468,31.0137027 107.88405,31.2060345 108.555556,29.9033706 C109.472139,28.1259738 107.349442,24.246301 103.814893,21.2378239 C100.280345,18.2301335 96.6726264,17.2326831 95.7560434,19.0104732 C95.1773765,20.1329982 95.8126905,22.0940737 97.2481462,24.144432 L75.9590291,50.1764705 L64.8435908,37.5124694 L64.8542122,37.5474746 L64.787337,37.4676314 C66.0780276,36.2947619 67.2927952,35.1808899 68.5335261,34.1165757 C70.5448949,32.3907034 72.6070101,30.7234352 74.6293936,29.0105424 C74.7918609,28.8728816 74.7918609,28.8728816 74.8835192,28.3501642 C74.9928798,27.7267577 74.4960367,27.0490735 74.2698413,26.404428 C73.333589,23.7318431 71.6467615,21.5308446 69.572058,19.5780287 C69.0272221,19.0655375 68.5343129,18.3870667 67.9155209,18.0869663 C66.4218446,17.3620842 64.866407,16.8197009 63.3381129,16.1955078 C62.4026475,15.8132043 61.5966051,16.0240218 60.968372,16.5467393 C59.3763498,17.8722156 57.8335005,19.2562959 56.3000924,20.6502092 C54.9173502,21.9072484 53.5688322,23.2024393 52.2167739,24.4933036 C51.9119018,24.7847511 51.614504,24.8500416 51.1766684,24.5790466 C50.5016227,24.1613446 49.9626876,24.2828794 49.4685982,24.7737382 L46.4505616,27.6846728 C46.1087115,28.0091588 45.7672548,28.3340382 45.4257981,28.6585242 C44.9592455,29.1025784 44.7731752,29.6473216 44.8837159,30.3722037 C44.9281682,30.6624712 44.876635,31.0514611 44.7043331,31.2264869 C43.9454967,31.9997469 43.139061,32.7250223 42.3275113,33.4424314 C40.5832497,34.9842317 38.8539368,36.5449111 37.0589288,38.0273206 C36.3886037,38.5811101 34.8481147,39.991936 34.4523711,40.6145558 L34.4496174,40.6161291 C34.4496174,40.6161291 32.8536614,42.6405285 38.438524,49.0083209 L38.48573,49.0625985 L38.5022521,49.081871 C38.5022521,49.081871 38.8932751,49.5613237 39.5337031,50.2095091 C41.367656,52.0659625 45.2601837,55.318689 47.9772821,52.7487597 C48.921402,51.8315459 49.8969926,50.9481573 50.8489802,50.0392031 C52.6369072,48.3326033 54.4228674,46.6236436 56.1942723,44.8993445 L56.7461891,44.423825 C58.467241,46.1957154 67.9973447,56.0176122 69.5783521,57.8874383 L98.0510415,25.1965533 C98.3134281,25.5147463 99.2418127,26.4551658 99.2418127,26.4551658 L74.2714148,56.7365946 C73.3394898,56.9529186 70.4910014,57.6581349 69.5783521,57.8874383 C54.296198,61.6491163 44.3038689,61.0115504 44.3038689,61.0115504 L44.4930863,55.8933242 C26.0249208,51.4283966 13,62.0518723 13,62.0518723 C16.3236954,63.2731196 19.0073563,64.7142309 19.0073563,64.7142309 L16.1647686,73.2735822 C20.9809602,71.132761 29.1613658,69.1162279 29.1613658,69.1162279 L28.9540528,74.7221664 C31.9067878,76.6258177 43.2240318,77.1603347 54.8146771,76.0311234 L45.2456285,87.7318926 C45.2456285,87.7318926 40.8334415,94.2385256 41.8904624,96.9366761 C44.3097697,97.7107227 50.3273539,91.126213 50.3273539,91.126213 L64.5001672,74.6722152 C66.1197262,74.3670017 67.6987667,74.026783 69.2073917,73.6460528 C73.094412,72.665515 77.1726166,71.7947125 81.0745855,71.0422983 L104.75744,97 C110.646388,93.919546 110.646388,89.6972946 110.646388,89.6972946 L92.524793,69.0505441 C97.8854271,68.2112069 101.532484,67.7620396 101.532484,67.7620396 L101.532484,67.7620396 Z M70,24.0013636 C68.5169167,23.8614187 57.746787,34.5365542 57,36 C58.3031861,35.3272621 69.7284058,24.7816624 70,24.0013636 M90,68 L90.0045,68.0055 L90.0015,68.0015 L90,68 M68.552959,61.2757867 L68.552959,61.3085895 C67.87827,62.8478921 67.2015463,64.38355 66.5215673,65.9139432 C65.854203,64.6123598 65.1892803,63.3111813 64.5267992,62.0095979 C64.043774,62.0942372 63.5603418,62.1772567 63.0773166,62.2590613 C63.05168,65.1728425 63.0256366,68.0862188 63,71 C63.4870945,70.9218402 63.974189,70.8424655 64.4612836,70.7614709 C64.4755261,68.8617422 64.4897686,66.9616086 64.5040112,65.0618799 C64.9996512,66.0342202 65.496512,67.0061556 65.9950006,67.9784959 C66.338449,67.9185599 66.6823044,67.8582189 67.0257528,67.797068 C67.53238,66.6566638 68.0373794,65.5134249 68.5407511,64.368161 C68.5334263,66.26384 68.5261016,68.1595189 68.5187769,70.0547929 C69.0050576,69.9677236 69.4913382,69.8790345 69.977212,69.7903454 C69.9849436,66.8599603 69.9922683,63.9299802 70,61 C69.5226718,61.0919289 69.0449366,61.1830478 68.5672015,61.2729518 C68.5623183,61.2737618 68.5578421,61.2745717 68.552959,61.2757867 M70,61.044 C70.006,61.0295 70.0115,61.015 70.0175,61 C70.0115,61.0015 70.006,61.0025 70,61.0035 L70,61.044 M95.8217023,57 C95.8168616,57.0004043 95.8124244,57.0012128 95.8075837,57.0020213 C95.3376361,57.0662974 94.8676886,57.1325949 94.397741,57.2013179 C94.3933038,57.2021264 94.3884631,57.2029349 94.3836224,57.2033391 C94.3840258,57.2146582 94.3840258,57.2259773 94.3844292,57.2368921 C93.7567568,58.7762865 93.126664,60.317298 92.4937475,61.8595222 C91.8015329,60.5097223 91.112142,59.1655819 90.4247681,57.8275054 C89.9499798,57.9075474 89.4751916,57.9888022 89,58.0720783 C89.0455829,61.0481869 89.0915692,64.0238913 89.1371521,67 C89.6159742,66.9207665 90.0947963,66.8427457 90.5736184,66.7663419 C90.5413473,64.8259288 90.5090762,62.8855156 90.4768052,60.9451025 C90.9911255,61.9448195 91.5066559,62.9473663 92.0237999,63.9531471 C92.3618395,63.9009985 92.699879,63.8500627 93.0379185,63.7995311 C93.5090762,62.652666 93.9790238,61.5066095 94.4473578,60.3613615 C94.4864865,62.2973279 94.5256152,64.23289 94.5647438,66.1684521 C95.0431626,66.1029632 95.5215813,66.0390912 96,65.9776448 C95.9362646,62.9970894 95.8721259,60.0161297 95.8083905,57.0355742 C95.8128278,57.0234467 95.817265,57.0117233 95.8217023,57 M99.0629144,61.9679783 C99.1615721,61.3562901 99.2598253,60.7442141 99.3580786,60.1321381 C99.486657,60.7201655 99.6152353,61.3085808 99.744218,61.8969961 C99.5173864,61.9202689 99.2901504,61.9439297 99.0629144,61.9679783 Z M98.4297267,57.1861828 C97.957464,60.1247683 97.4807537,63.062966 97,66 C97.4795407,65.9433694 97.9590814,65.8886782 98.438622,65.8367022 C98.5765001,64.9903461 98.7135695,64.1436021 98.8506388,63.2968582 C99.2424389,63.254967 99.6346434,63.2142395 100.026443,63.1758393 C100.204351,63.9907771 100.382662,64.8061027 100.560974,65.6225919 C101.040919,65.5779856 101.520459,65.5360945 102,65.4973064 C101.375303,62.6572426 100.755054,59.8249364 100.139253,57 C99.5695455,57.0581821 98.9998383,57.1202431 98.4297267,57.1861828 L98.4297267,57.1861828 Z M83.504654,66.3615749 L83.4815864,63.906411 C84.4552813,63.7179963 85.4281667,63.5328798 86.4010522,63.3522985 C86.3953865,62.8954855 86.3901255,62.4390847 86.3844597,61.982684 C85.413193,62.1645022 84.441117,62.3508555 83.4690409,62.5400948 C83.460947,61.70604 83.4532578,60.8719852 83.4455686,60.0379303 C84.5989478,59.8103484 85.7519223,59.5868893 86.9040874,59.3704391 C86.8984217,58.9136261 86.892756,58.456813 86.8870902,58 C85.2594091,58.30839 83.6301093,58.6299732 82,58.958153 C82.0246864,61.9723768 82.048968,64.9861884 82.0736544,68 C83.7171186,67.6841888 85.358964,67.3749742 87,67.0793651 C86.9943343,66.6237889 86.9886686,66.1682127 86.9830028,65.7126366 C85.8243626,65.9229025 84.664913,66.1401773 83.504654,66.3615749 M44,73 C45.6054614,72.9621382 47.2117075,72.8827107 48.8183459,72.7678906 C48.8273697,72.3279528 48.8363936,71.888015 48.8458098,71.4480772 C47.7111582,71.530797 46.5768989,71.595409 45.4426397,71.640267 C45.4610797,70.8501075 45.4799121,70.0599479 45.4987445,69.2697883 C46.451742,69.2298688 47.4051318,69.1759568 48.3585217,69.1092871 C48.3675455,68.6681147 48.3769617,68.2273538 48.3863779,67.7865929 C47.4341651,67.8544972 46.4819523,67.9096438 45.5301318,67.9507979 C45.5489642,67.1454113 45.568189,66.3400247 45.5874137,65.5346381 C46.7157878,65.4831954 47.844162,65.4119987 48.9725361,65.3231058 C48.9815599,64.8819333 48.9905838,64.4411724 49,64 C47.4055242,64.1275778 45.8114407,64.2197631 44.2181419,64.2703827 C44.1451664,67.1803923 44.0725832,70.0899904 44,73 M72.1613914,64.9284247 C72.2746626,64.3247003 72.3879338,63.720976 72.501205,63.1172517 C72.6148779,63.6785959 72.7285508,64.2399401 72.8422237,64.8016695 C72.6152796,64.8440497 72.3883355,64.8860445 72.1613914,64.9284247 Z M71.6456459,60.3259418 C71.1017834,63.2220462 70.5531009,66.1131421 70,69 C70.4795951,68.9144692 70.9591902,68.8285531 71.4387853,68.7418664 C71.5970437,67.9081336 71.7549004,67.0736301 71.9127571,66.2391267 C72.3043862,66.1670805 72.6964171,66.0950342 73.0880463,66.0222175 C73.245903,66.7997003 73.404563,67.5771832 73.563223,68.3550514 C74.0424165,68.2672089 74.5212082,68.1793664 75,68.0911387 C74.4473008,65.3903682 73.8990199,62.6934503 73.3547558,60 C72.7851864,60.1090325 72.215617,60.2180651 71.6456459,60.3259418 L71.6456459,60.3259418 Z M79.3780389,66.9711354 C78.7698541,67.0920998 78.1616694,67.2130642 77.5530794,67.3348628 C77.5437601,65.2075582 77.5340357,63.0806707 77.5247164,60.9533661 C78.1300648,60.8286477 78.7350081,60.7043464 79.3399514,60.5804622 C79.3768233,60.6192542 79.4141005,60.6584633 79.4509724,60.6976725 C79.4635332,62.7428047 79.476094,64.7879369 79.4882496,66.8334863 C79.4517828,66.8793693 79.4149109,66.9252524 79.3780389,66.9711354 Z M80.3298217,59 C78.8877634,59.2965713 77.4444895,59.5968966 76,59.8963878 C76.0093193,62.9309252 76.0190438,65.9654626 76.028363,69 C77.4841977,68.7117711 78.9388169,68.4227079 80.3926256,68.1373988 C80.5952188,67.8792025 80.797812,67.6201719 81,67.3619755 C80.9809562,64.7712522 80.9619125,62.1801118 80.9424635,59.5893885 C80.7382496,59.3929257 80.5340357,59.1964628 80.3298217,59 L80.3298217,59 Z M50.6295095,64 C50.1467369,64.047005 49.6643697,64.0906822 49.1820024,64.1318636 C49.1211998,67.0877704 49.0608026,70.0440932 49,73 C50.6595055,72.8735441 52.3194163,72.7117304 53.9785164,72.5207987 C53.9858127,72.0740433 53.9927037,71.6268719 54,71.1801165 C52.8281313,71.3161398 51.6562627,71.43802 50.484394,71.5432612 C50.5326307,69.0287022 50.5808675,66.5145591 50.6295095,64 M105.344014,56.0642829 C105.395592,57.7730401 105.447171,59.4821869 105.49875,61.1913337 C104.789153,59.5160816 104.082682,57.8501796 103.379728,56.193628 C102.919819,56.2275226 102.459909,56.2649236 102,56.3050517 C102.07854,59.203238 102.157471,62.1014242 102.236011,65 C102.699828,64.9629886 103.163254,64.9294836 103.627071,64.8987057 C103.578618,63.1926756 103.530166,61.486256 103.481713,59.780226 C104.187012,61.4398944 104.895827,63.108913 105.607768,64.7872819 C106.071585,64.7654647 106.535792,64.7475434 107,64.7331284 C106.908174,61.8220856 106.816349,58.9110428 106.724523,56 C106.264223,56.0179213 105.803923,56.0393489 105.344014,56.0642829 M55,72 C55.4789869,71.9451931 55.9575743,71.8880539 56.4365612,71.8289712 C56.4541387,70.6566468 56.4717162,69.4839337 56.4888942,68.3116092 C57.4580537,68.1883908 58.4264142,68.0566209 59.3947747,67.917077 C59.399968,67.4965017 59.4047619,67.0759264 59.4099553,66.6553511 C58.4427932,66.7956725 57.4756312,66.9286084 56.5076702,67.052993 C56.5192554,66.2845297 56.5308405,65.5156776 56.5424257,64.747603 C57.6905561,64.5975641 58.838287,64.4350868 59.9856184,64.2625032 C59.9904123,63.8415393 59.9952061,63.4205753 60,63 C58.3792745,63.2456595 56.7577501,63.4711065 55.1354267,63.6705105 L55,72 M39.8337242,64 C39.6292996,64.2023788 39.4248749,64.4040039 39.2204503,64.6048752 C39.182536,65.7682706 39.1446216,66.932043 39.1067073,68.0954384 C39.2493746,68.2499548 39.3924328,68.4040944 39.5354909,68.5582339 C40.4720138,68.5857453 41.4089275,68.598182 42.346232,68.5966746 C42.382192,68.6305928 42.418152,68.6641342 42.4541119,68.6980524 C42.4349593,69.359458 42.4154159,70.0212404 42.3962633,70.682646 C42.3579581,70.7225941 42.3196529,70.7621654 42.2813477,70.8017367 C41.7278768,70.8017367 41.1744059,70.7964605 40.620935,70.786285 C40.5861476,70.74596 40.5517511,70.705635 40.5169637,70.66531 C40.5279081,70.3140678 40.5388524,69.9632025 40.5497967,69.6119604 C40.052611,69.6029155 39.5554253,69.5893482 39.0586304,69.5716354 C39.0390869,70.1708575 39.0195435,70.7700797 39,71.3689249 C39.1926986,71.5656507 39.385788,71.7616227 39.5792683,71.956841 C40.7851001,71.9941511 41.9921044,72.0065878 43.1994997,71.9967892 C43.4031426,71.8049627 43.6067855,71.6127594 43.8104284,71.4198023 C43.8428705,70.2462314 43.8757036,69.0726605 43.9085366,67.8987127 C43.724828,67.7411813 43.5411194,67.5828962 43.3574109,67.4242342 C42.4806911,67.4355403 41.604753,67.4347866 40.7288149,67.4212193 C40.6928549,67.3880548 40.6568949,67.3548903 40.620935,67.3213489 C40.641651,66.6599433 40.6623671,65.9985378 40.6826923,65.3371322 C40.7209975,65.2979378 40.7589118,65.2587434 40.797217,65.219549 C41.347561,65.2270864 41.8982958,65.2293476 42.4486398,65.2267095 C42.4834271,65.2662808 42.5178236,65.305852 42.552611,65.3454233 C42.5420575,65.6970423 42.5318949,66.0486614 42.5217323,66.4002804 C42.9978111,66.3980192 43.4742808,66.3919893 43.9507505,66.3829444 C43.967167,65.7969127 43.9835835,65.2112579 44,64.6252261 C43.8088649,64.4213399 43.6177298,64.2170767 43.4269856,64.0124367 C42.2285804,64.031657 41.0309568,64.0278883 39.8337242,64" id="Logo"></path>
        </g>
    </g>
</svg>